/* XPM */
static char *result[] = {
/* columns rows colors chars-per-pixel */
"128 128 44 1 ",
"  c #111516",
". c #141817",
"X c #131718",
"o c #15191A",
"O c #191D1E",
"+ c #1B1F20",
"@ c #1E2024",
"# c #222326",
"$ c #252529",
"% c #28272B",
"& c #26292C",
"* c #29292D",
"= c #2B2D31",
"- c #2E3034",
"; c #313337",
": c #333639",
"> c #363A3E",
", c #383C3F",
"< c #393D41",
"1 c #3E4146",
"2 c #414347",
"3 c #42454A",
"4 c #46494E",
"5 c #484A4F",
"6 c #474B50",
"7 c #4A4D52",
"8 c #504F54",
"9 c #4E5156",
"0 c #4F5258",
"q c #515357",
"w c #505358",
"e c #56595E",
"r c #59585D",
"t c #575A60",
"y c #5E5E63",
"u c #605F64",
"i c #5E6166",
"p c #5F6368",
"a c #64676C",
"s c #66696E",
"d c #686A6F",
"f c #676A70",
"g c #696C71",
"h c #6D7075",
/* pixels */
"yuuyuq>>,,,,:uyya*@@#@@#@@@@@@@@#@###@@#####$@#@$@$@@$@$@#@####@###&$#&$#$$$#$#$$$#$$$&#####$$#$#$$#$$$#$#$$$&&#iyurr>>,,,,8uyyy",
"yyyuyq,,,,,,:ua**,,,,,,,,,<1<<<<<<,,,,>1,,,,,,,,,,,,,,,,,,,,,,,,,,>>,,>>,>,,,,,>,,>>>>,,>11>,,,,,>,,>,,,,,>,,>,,#iyar,,,,,,5uyyu",
"uyuyuq,,,,,,:r%,,,,,,,,,,,,,,,,,,,,,,,,,,,,,,,,,,,,,,,,,,,,,,,,,,,,,,,,,,,,,,,,,,,,,,,,,,,>>,,,,,,,,,,,,,,,,,,,,>#ayr>,,,,,5yuyu",
"yuyuuq,,,,,,&:,,,,,,,,,,,,,,,,,,,,,,,,,,,,,,,,,,,,,,,,,,,,,,,,,,,,,,,,,,,,,,,,,,,,,,,,,,,,,,,,,,,,,,,,,,,,,,,,,,,,%3r,,,,,,8uyuy",
"yuyuuq,,,,,%>,,,,,,,,,,,,,,,,,,,,,,,,,,,,,,,,,,,,,,,,,,,,,,,,,,,,,,,,,,,,,,,,,,,,,,,,,,,,,,,,,,,,,,,,,,,,,,,,,,,,,,=;,,,,,:8yuyu",
"uyuyuq,,,,%,,,,,,,,,,,,,,,,,,,,,,,,,,,,,,,,,,,,,,,,,,,,,,,,,,,,,,,,,,,,,,,,,,,,,,,,,,,,,,,,,,,,,,,,,,,,,,,,,,,,,,,,,-*,,,,>8uyuy",
"yuyyuq,,,%<,,,,,,,,,,,,,,,,,,,,,,,,,,,,,,,,,,,,,,,,,,,,,,,,,,,,,,,,,,,,,,,,,,,,,,,,,,,,,,,,,,,,,,,,,,,,,,,,,,,,,,,,,,:;,,,>8uuyu",
"uyuuuq,,%:,,,,,,,,,,,,,,,,,,,,,,,,,,,,,,,,,,,,,,,,,,,,,,,,,,,,,,,,,,,,,,,,,,,,,,,,,,,,,,,,,,,,,,,,,,,,,,,,,,,,,,,,,,,,==,,>5uuur",
"yuyuu8,%>,,,,,,,,,,,,,,,,,,,,,,,,,,,,,,,,,,,,,,,,,,,,,,,,,,,,,,,,,,,,,,,,,,,,,,,,,,,,,,,,,,,,,,,,,,,,,,,,,,,,,,,,,,,,,,;%,,8yuyy",
"uyurur%,>,,,,,,,,,,,,,,,,,,,,,,,,,,,,,,,,,,,,,,,,,,,,,,,,,,,,,,,,,,,,,,,,,,,,,,,,,,,,,,,,,,,,,,,,,,,,,,,,,,,,,,,,,,,,,,,>%,8yyyu",
"yuuu5%,,,,,,,,,,,,,,,,,,,,,,,,,,,,,,,,,,,,,,,,,,,,,,,,,,,,,,,,,,,,,,,,,,,,,,,,,,,,,,,,,,,,,,,,,,,,,,,,,,,,,,,,,,,,,,,,,,,,%2yyuy",
"yuu>%,,,,,,,,,,,,,,,,,,,,,,,,,,,,,,,,,,,,,,,,,,,,,,,,,,,,,,,,,,,,,,,,,,,,,,,,,,,,,,,,,,,,,,,,,,,,,,,,,,,,,,,,,,,,,,,,,,,,,,*<yyu",
"yyr-,,,,,,,,,,,,,,,,,,,,,,,,,,,,,,,,,,,,,,,,,,,,,,,,,,,,,,,,,,,,,,,,,,,,,,,,,,,,,,,,,,,,,,,,,,,,,,,,,,,,,,,,,,,,,,,,,,,,,,,,=ryy",
"u8%,,,,,,,,,,,,,,,,,,,,,,,,,,,,,,,,,,,,,,,,,,,,,,,,,,,,,,,,,,,,,,,,,,,,,,,,,,,,,,,,,,,,,,,,,,,,,,,,,,,,,,,,,,,,,,,,,,,,,,,,,<%5u",
"2%,,,,,,,,,,,,,,,,,,,,,,,,,,,,,,,,,,,,,,,,,,>,>>,,,,,,,,,,,,,,,,,,,,,,,,,,,,,,,,,,,,,,,,,,,,,,,,,,,,,,,,,,,,,,,,,,,,,,,,,,,,,,*:",
"%,,,,,,,,,,,,,,,,,,,,,,,,,,,,,,,,,,,,,,,,,,,<><<,,,,,,,,,,,,,,,,,,,,,,,,,,,,,,,,,,,,,,,,,,,,,,,>,,,,,,,,,,,,,,,,,,,,,,,,,,,,,,<-",
",,,,,,,,,,,,,,,,,,,,,,,,,,,,*&*$&&&&*&&&&&$&*$&&&*$**$&*&$$&&&&&@&&&&&$&&&*&$&$$$$$$&$$$&#$$#$$$$$$&&&@&$,,,,,,,,,,,,,,,,,,,,,,,",
",,,,,,,,,,,,,,,,,,,,,,,,,,,&reweweewwee113331332131313133333199w-qwq43111111111111<1111111119qww000w0www0@1>,,,,,,,,,,,,,,,,,,,,",
",,,,,,,,,,,,,,,,,,,,,,,,,,%qwwqqwqww000eggaggggggggggggggggg10ww&www1hghggggggggggggfgfgggda49ww00ww00w90q&1,,,,,,,,,,,,,,,,,,,,",
",,,,,,,,,,,,,,,,,,,,,,,,:%qqwwwqwwww009eaaaaaaaaaaaaaaaaaaaa<0ww&eww<saaaaaaaaaaaaaaaaaaaaaa49wwqqq000wwqqw&1,,,,,,,,,,,,,,,,,,,",
",,,,,,,,,,,,,,,,,,,,,,,:&qw0wwwwwwww009eaaaaaaaaaaaaaaaaaaaa199w&eww1gaaasaaaaaaaaaaaaaaaaaa4wwwqwwwwwwwwwwe&1>,,,,,,,,,,,,,,,,,",
",,,,,,,,,,,,,,,,,,,,,,;*0wwwwwqwwqww099eaaaaaaaaaaaaaaaaaaaa1www$tww<gaaaaaaaaaaaaaaaaaaaaaa4wwwwwwwwwwwwwwqe*,>,,,,,,,,,,,,,,,,",
",,,,,,,,,,,,,,,,,,,,,*qq00wwwwwwwwwqwq9eaaaaaaaaaaaaaaaaaaaa1qww@e0w<gaaaaaaaaaaaaaaaaaaaaas3qwwwwwww0wwwqwwww&:,,,,,,,,,,,,,,,,",
",,,,,,,,,,,,,,,,,,,,*:qqwqwwwww0wwwqqq9eaaaaaaaaaaaaaaaaaaaa1www@i00<gaaaaaaaaaaaaaaaaaaaaas300qwqwwwwwwwwwwwww&<,,,,,,,,,,,,,,,",
",,,,,,,,,,,,,,,,,,,,-wwww0wwqwwwwwwwww4eaaaaaaaaaaaaaaaaasaa10wwOi00<gpaaaaaaaaaaaaaaaaaaaag4000wwwwwwwwwwwwww9w%,,,,,,,,,,,,,,,",
",,,,,,,,,,,,,,,,,,,1-w0wwww00www0wwwww9iaaaaaaaaaaaaaaaaaaaa1qwwOt00<gaaaaaaaaaaaaaaaaaaaaag3000wwq0wwwww9wwwwwwr#,,,,,,,,,,,,,,",
",,,,,,,,,,,,,,,,,,>,*0wwwwwwwwwwwwwwww9eaaaaaaaaaaaaaaaaaaaa1wwwoe0q<faaaaaaaaaaaaaaaaaaaaaa30wwwwww9wwwwwwwwwww8q#,,,,,,,,,,,,,",
",,,,,,,,,,,,,,,,,,>1&0wwwwwwww0wwwww0w9eaagaaaaaaaaaaaaaaaas1wwwOiqq<faaaaaaaaaaaaaaaaaaaaag4wwwwwwwwwwwwwwwwwwwqqr%<,,,,,,,,,,,",
",,,,,,,,,,,,,,,,,,,,&9q0wwwwwwwwwwww009taaaaaaaaaaaaaaaaaaap1wq9otww1saaaaaaaaaaaaaaaaaaaaaa10wwwwwwwwwwwwwwwwwwqww=<,,,,,,,,,,,",
",,,,,,,,,,,,,,,,,,,1&q0qw0wwq0wwww0w007yaaaaaaaaaaaaaaaaaaas1wwwoeww>saaaaasaaaaaaaaaaaaaaag300wwww9wwwwwwwwwqwwwwq=<,,,,,,,,,,,",
",,,,,,,,,,,,,,,,,,,,&0wwwwwqwwwwww0w007iaaaaaaaaaaaaaaaaaasp4wwwOe0w>spaaaaaaaaaaaaaaaaaaaaa30wwwwwwwwwwwqwwwwwwqqq*<,,,,,,,,,,,",
",,,,,,,,,,,,,,,,,,,,&0wwwwwwwww0wwwwww6yaaaaaaaaaaaaaaaaspss4wwwoeqw<ssaaaaaaaaaaaaaaaaaaaaf30wwwwwwwwwwwwwwwwqqq0q=<,,,,,,,,,,,",
",,,,,,,,,,,,,,,,,,,,&9wwwww0wwwqwwwwww9iaaaaaaaaaaaaaaaaaaaa490woeww<sasaaaaaaaaaaaaaaaaaass1wwwwwwwwwwwwqwwwwwww9w&,,,,,,,,,,,,",
",,,,,,,,,,,,,,,,,,,,#9wwwwqwww0wwww0ww4iaaaaaaaaaaaaaaaaaaaa4qwwoeww<sapaaaaaaaaaaaaaaaaaaas4wwwwwwwwwwwwwwwwwwwwww=,,,,,,,,,,,,",
",,,,,,,,,,,,,,,,,,,,$9qwww0www0wwwwwww4paaaaaaaaaaaasaaaaaaa40w9ow00>aasaaaasaaaaaaaaaaaaass1wwwwwwwwwwww9wwwwwwwww&,,,,,,,,,,,,",
",,,,,,,,,,,,,,,,,,,,#9qwwwwwwwwwqwww0q4paaaaaaaaaaaaaaaaaaaa4ww9oe00<aaaaaaaaaaaaaaaaaaaaasg1wwwwww9wwwwwwwwwwwwwww&1,,,,,,,,,,,",
",,,,,,,,,,,,,,,,,,,,$w0wwwwwwwwwwwwqww4paaaaaaaaaaaaaaaaaaaa4ww9oe00>spaaaaaaaasaaaaaaaaaaas3wwwww9w9wwwwwwwwwwwwww=1>,,,,,,,,,,",
",,,,,,,,,,,,,,,,,,,,&wwwwwww0ww0wwwwww4paaaaaaaaaaaaaaaaaaaa7w09ow00>asaaaaaaaspaasaaaaaaass1wwwwwwwwwwwwwwwwwwwwww*1>,,,,,,,,,,",
",,,,,,,,,,,,,,,,,,,,$0ww0wwwwwwqww0www4paaaaaaaaaaaaaaaaaaaa7ww9owqw>aaaaaaaaaaaaapsaaaaaaas1wwwwwwwwwwwwww9wwwwwww&,,,,,,,,,,,,",
",,,,,,,,,,,,,,,,,,,,&wwqwwq0wwwwwwwwww4paaaaaaaaaaaaaaaaaaaa70w9owww>aaaaaaaaaaaaaaaaaaaaass1wwwwwwwwwwwwwwwwwwwwww&,,,,,,,,,,,,",
",,,,,,,,,,,,,,,,,,,,&wwwwwwwwwwwwwww004paaaaaaaaaaaaaaaasssp6qw9 www1gaaaaaaaaaaaaaaaaaaaaag1wwwwwwwwwwwwwwww9wwqqq%<,,,,,,,,,,,",
",,,,,,,,,,,,,,,,,,,,*w00wwwwwwwwwqwwq04paaaaaaaaaaaaaaaapps71ww9owww0>gaaaaaaaaaaaaaaaaaaaas1wwwwwww9wwwwwwwwwwwqqq&<,,,,,,,,,,,",
",,,,,,,,,,,,,,,,,,,,&e00wwwwwwwwwwww0q4aaaaaaaaaaaaaaaaass17wwwqO:ww0010saasaaaaaaaaaaaaaasg1wwwwwwwwwwwwwwwwwwwqqq&<,,,,,,,,,,,",
",,,,,,,,,,,,,,,,,,,,&e00wwwww9wwwwww0w4paaaaaaaaaaaasaaas>9wwweowO1wq0013aasaaaaasaaaaaaaaas1wwww9wwwwww9wwwwwwwwwq&<,,,,,,,,,,,",
",,,,,,,,,,,,,,,,,,,,&ewwww9wwwwwwwwwqw4aaaaaaaaaaaaaaaas<ww0weoewwoeqqqw11spaaasaaaaaaaassag1wwwwwwwwwwwwwwwwwwwww9&<,,,,,,,,,,,",
",,,,,,,,,,,,,,,,,,,,=wwwwwwwwwww0wwqww4paaaaaaaaaaaaaas>wwwwwoeqwwwoe0www4esaaaaaaaaaaaapsas1wwwwwww9wwwwwwwwwwwww9&<,,,,,,,,,,,",
",,,,,,,,,,,,,,,,,,,,&ewwwwwww9wwwwwwqq3aaaaaaaaaaaaaaa10wwww61wwwwweowww0q19aaaaaaaaaaaapssf1wwwwwwwwwwwwwwwwwww009&,,,,,,,,,,,,",
",,,,,,,,,,,,,,,,,,,>=ewwwwwwwwwwwwww004aaaaaaaaaaaaas1wwww0eow0wwwwwwoww00911aaaaaaaaaaassps1wwwwwwwwwwwwwww9www009&1,,,,,,,,,,,",
",,,,,,,,,,,,,,,,,,,,-e0wwwwww9wwwwwwww4aaaaaaaaaaaas>wwwww7o00wwwwwwweoewwwwe1fpaaaaaaaaaaag1qqwwwwwwww9w9wwwwww0q9&1>,,,,,,,,,,",
",,,,,,,,,,,,,,,,,,,,=wqwwwwwwwww0wwwww1aaaaaaaaaaas<w0wwweowwwwwwwwwwweoiwwwww1faaaaaaaaaaag10ww9wwwwwwwwwwwwwwwqq9$,,,,,,,,,,,,",
",,,,,,,,,,,,,,,,,,,,-eqqwwwwwwwwwqwwww4saaaaaaaaaaa4wwwweoeww0wwwww0wwweowwwww7eaaaaaaaaaaag10wwwwwwwwwwwwwwwww9wq9$,,,,,,,,,,,,",
",,,,,,,,,,,,,,,,,,,,-wwqwwwwwwwwwwwwww1saaaasaaaaaa3www0 ewwwwwwwwqwwwww-wwwww9waaaaaaaaaass1wwwwwwwwwwwwwwwwwwwww0@1,,,,,,,,,,,",
",,,,,,,,,,,,,,,,,,,,-00qw9wwwww9wwwwww1gaaaaaaaaaaa3wwww 00wwwwwwwwwwwww-wwwww9eaasaaaaaaaag19wqwwwwwwwwwwwwwwwwww9$,,,,,,,,,,,,",
",,,,,,,,,,,,,,,,,,,,;9wqwwwwwwwwwwwwww1faaaaaaaaaaa4www0 0qqww0wwwwwwwww-wwwww9waaaaaaaaaaag10wqwwwwwwwwwwwwwwwwww9&1,,,,,,,,,,,",
",,,,,,,,,,,,,,,,,,,,:4wwwwwwwwwwwwwwww3gaaaaaaaaaaa3wwww 0wwwwwwwww9wwww&ewwww9waaaaaaaaaaag1990wwwwwwwwwwwwwwwwww9@,,,,,,,,,,,,",
",,,,,,,,,,,,,,,,,,,,:4wqwwwwwwwwwwwwww1faaaaaaaaaaa4wwww wwwwqwwwwwwwwww&ewwwwwwaaaspsaaaaas1900wwwwwwww9wwwwwwwww9$,,,,,,,,,,,,",
",,,,,,,,,,,,,,,,,,,,:1wwwwwwwwwwqwwwww1gsaaaaaaaaaa4wwww wwwwwwwwwwwwwww&wwwww9waaaaaaaapssg1wwww9wwwwwwwwwwwwwwwww&1,,,,,,,,,,,",
",,,,,,,,,,,,,,,,,,,,:1wwwwwwwwwwwwwwww1haaaaaaaaaap4wwww wwwwwqwwwwwwwww&ewwww9waaaaaaaasspg1wwwwwwwww9wwwwwww9www9@,,,,,,,,,,,,",
",,,,,,,,,,,,,,,,,,,,,1wwwwwwwwwwwwwwww1gaaaaaaaaaap4qq00 wwwwwwwwwwww9ww&ewwww9waaaaaaaasasg,99wwwwwwwwww9wwwwwwww9@,,,,,,,,,,,,",
",,,,,,,,,,,,,,,,,,,,,>wwwwwwwwwwqwwwww1gaaaasaaaaap40q00 eww0wwwwwwwwwww&wwwww9waaaaaaaaaaps1wwwwwwwwwwwwwwwwwwwwww@1,,,,,,,,,,,",
",,,,,,,,,,,,,,,,,,,,1;wwwwwwwqwwwwwqww1haaaaaaaaaap400q0 ewwwwwqwwwwwwww&wwwww9waaaaaaasaaag>9wwwwwwwwwwwwwwwwwwww9@,,,,,,,,,,,,",
",,,,,,,,,,,,,,,,,,,,,-wwwwwwwwwwwwwwww1gaaaaaaaaaap4w009 ewwwwwww9wwwwww@ewwww99aaaaaaapaaag19wwwwwwwwwwwwwwwwwwwwq@,,,,,,,,,,,,",
",,,,,,,,,,,,,,,,,,,,1-qqwwwwwwwwwwwwww1haasaaspaaap4wwq9 ewwwwwwwwwww9ww&ewwww9waaaaaaasaaag19wwwwwww9wwwww9wwwwwww@,,,,,,,,,,,,",
",,,,,,,,,,,,,,,,,,,,,=qwwwwwwwwwwwwwww1gaapsaasaaaa4ww00oewwwwwwwwwwwww9@ewwww99aaasaaaaaaag,9wwwwwwwwwwwwwwwwwwwq9&,,,,,,,,,,,,",
",,,,,,,,,,,,,,,,,,,,1-wwwwwwwwwwwwqwww1gaaaaaaaaspp6www9Oewwwwwwwwwwwwww@ewwww99aaaaaaaaaaas>00qqwwwwwwwwwwwwwwwww9@1,,,,,,,,,,,",
",,,,,,,,,,,,,,,,,,,,,&wwwwwwwwwwwwwwww1gaaaaaaaassp6wwwwOe9w0wwwww9wwwww+ewwwww9aaaaaaaaaass100qwwwwwwwwwwwwww9wwww@,,,,,,,,,,,,",
",,,,,,,,,,,,,,,,,,,,1$wwwwwwwwwwwwwwww1gaaaaaaaapsp7wwww@ewwwwqwwwww9www+twwww99aaaaaaaaaaas>9wwwwwwwwwww9wwwwww00w@,,,,,,,,,,,,",
",,,,,,,,,,,,,,,,,,,,,$wwwwww9wwwwwwwww1gaaaaaaaapsp1wwww@ewwwwwwwwwwwww9+ewwww97aaasaaaaaass1wwwwwwqwwwwwwwwwwwwq00&,,,,,,,,,,,,",
",,,,,,,,,,,,,,,,,,,,,@wwwww9wwwwwwwwww1gapsaaaaasai6wwww@ewwwwwwwwwwwww9Otwwww99aaaaaaaaaaas19wwww9w9wwwwwwwwwwwwwq@1,,,,,,,,,,,",
",,,,,,,,,,,,,,,,,,,,1@wwwwww9wwwwwwwq01sasaaaaaasai6wwww@ewwwwwwww9wwww9Oewwww97aaaaaaaaaass>9wwwwwwwwwwwwwwwwwwwwq@,,,,,,,,,,,,",
",,,,,,,,,,,,,,,,,,,,,@wwwwwwwwwwwww9901haaaaaaaaaai6wwww@ewwwwqwwwwwwww9Oewwww97aaaaaaaaaaas<00qwwwwwwwwwww9wwwwqww&1,,,,,,,,,,,",
",,,,,,,,,,,,,,,,,,,,1@wwwwwwwwwwwwww991gaaaaaaaaaai6wwww&wwwwwwwwwwwwww9Oewwww97aaaaaaaaaaas<000wwwwwwwwwwwwwwwwwww@,>,,,,,,,,,,",
",,,,,,,,,,,,,,,,,,,,,$0qwwwwwwwwwwww9w1gaaaaaaaaaai6qqqq&ewwwwwwwwww9ww9Oewwwww7aaaaaaaaaaas1wwwwwwwwwwwwwwww9wwwqq@,,,,,,,,,,,,",
",,,,,,,,,,,,,,,,,,,,,$qqwwww9wwwwwwwww1gaaaaasaaaai6qqwq&ewwqwwwwwwwwww9otwwww97aaaaaaaaaaas>wwwwwwww9wwwwwwwwwwwww$,,,,,,,,,,,,",
",,,,,,,,,,,,,,,,,,,,>&qww0wwwwwwwwwww91ssaaaaaaaaai6wwww-wwwwwwwwwwwwww9oewwwww7aaaaaaaaaaas>0wwwwwwwwww9wwwwwwwwww$,,,,,,,,,,,,",
",,,,,,,,,,,,,,,,,,,,,&wwwwwwwwwwwwwww91fpsaaaaaaaai6wwwq:wwwwwwwwwwwwww9.ewwwwe1aaasaaaaaass>0www9wwwwwwwwwwwwwwwwq@1,,,,,,,,,,,",
",,,,,,,,,,,,,,,,,,,,,&00wqwwqwwwwwwwww1saaaaaaaapsi6wwww:00wwwww9wwwwww9.ewwwww6aaaaaaaaaaas>wwwwwwwwwwwwwwwwwwwwww@,,,,,,,,,,,,",
",,,,,,,,,,,,,,,,,,,,,&00wwwwwwwwwwwww01saaaaaaaaspi6wwww>70qwwwwwwwwwww9.ewwwww6aaaaaaaaaaas>0wwwwwww9wwwwwwwwwwwwq&,,,,,,,,,,,,",
",,,,,,,,,,,,,,,,,,,,,&00wwwwwww0w9www91paaaaaaaaspi6wwww16wwwww0wwwwwwwe.9wwwww6aaaaaaaaaaas>0wwwwwwwwwwwwwwwwwwwww$,,,,,,,,,,,,",
",,,,,,,,,,,,,,,,,,,,,*w00wwwwwwwwwwww91gaaaaaaaassi7wwwqwo9ww0wwwwwwwww.e9wwwww6aaaaaaaaaaaa1w0wwwwwwwwwwwww9wwwwww@,,,,,,,,,,,,",
",,,,,,,,,,,,,,,,,,,,,&wwqwwwwwwwwwwwww1gaaaaapsaaat70wwwww;o00wwwwwww9.ewwwwwwe4aaaaaaaaaaaa<9wwwwwwwwwwwqwwwwwwwww&,,,,,,,,,,,,",
",,,,,,,,,,,,,,,,,,,,>&w0ww0wqwwwwwwwww1psaaaasaaaay6wwwwwww1X0wwwwwww&>wwwwwwww1aaaaaaaaaaas>0wwwwww9wwwwww0wqwwwww@,,,,,,,,,,,,",
",,,,,,,,,,,,,,,,,,,,,*0qwwqwwww0wwww0w1spaaaaaaaaaa<6wwwwwww7*0wwwww6o9wwwqqw7,faaaaaaaaaaas>0wwwwwwwwwwwwwwww0ww00&,,,,,,,,,,,,",
",,,,,,,,,,,,,,,,,,,,,&00wwwwwwwwwwww99<ssaaaaaaaaaaa<6wwwwwww-o09wwe.wwwwwwq11pfaaaaaaaaaaaa>wwwwwwwwwwwwwwwwwwww00#,,,,,,,,,,,,",
",,,,,,,,,,,,,,,,,,,,1&wwwww0wwwwwwwwww1saaaasaaaaaaas<w0wwwwww3owwe.ewwwwww11aaaaaaaaaaaaasa>wwwwwwwwqwwwwwwwwwwwqq&>>,,,,,,,,,,",
",,,,,,,,,,,,,,,,,,,,>=9wwwwwwwww9wwwww1gaaaaaaaaaaaasa<0wwwwwwwwowowwwwwww19saaaaaaaaaaaaaps>w0w9www0wwwwww0wwwwww0#,,,,,,,,,,,,",
",,,,,,,,,,,,,,,,,,,,,&wwwwqwwwwwwwwwww1gaaaaaaaaaaaaaaa7<wwwwwwww+ewwwwww,gaaaaaaaaaaaaaaaaa>0wwwwwwwwwwwwwwwqwww0w#,,,,,,,,,,,,",
",,,,,,,,,,,,,,,,,,,>1-wwwwwwwwqwwwwwww,paaaaaaaaaaaaaaaaw<wwwwww9Oewwwww,saaaaaaaaaaaaaaaaaa>wwwwwwwwwwwwwwqwww0www&,,,,,,,,,,,,",
",,,,,,,,,,,,,,,,,,,,,-wwwwwwwwwwqw0w00<saaaaaaaaaaaaaaaaat<0wwww9Oewwww,gaaasaaaaaaaaaaaafaa>0wwwwwwwwwwwwww0wwwq0q$,,,,,,,,,,,,",
",,,,,,,,,,,,,,,,,,,,,;wwwwwwwwwwwwww00<saaaaaaaaaasaaaaaast<wwww9.eww9,gaaaaaaaaasaaaaaaspaa>0wwwwwwwwwwwwwwwwww0q0#,,,,,,,,,,,,",
",,,,,,,,,,,,,,,,,,,,,;wwwwww9wwwwwww0q<aaaaaaaaaaaaaaaaaaaay<www9.tw6,faaaaaaaaaaaaaaaaaaaaa>0www9www9ww0ww0wwwwq00&,,,,,,,,,,,,",
",,,,,,,,,,,,,,,,,,,,,:ewwwwwwwwwwwwwww<saaaaaaaaaaaaaaaaasaaa0ww9 e91aaasaaaaaaaaaaaaaaaaaaa>wwwwwwwwwwwqwwwwwwqwq0&,,,,,,,,,,,,",
",,,,,,,,,,,,,,,,,,,,1:ewwwww0wqwwwwwww1saaaasaaaaaaaaaaaaaaad7ww9 e99aaapfpsaasaaaaaaaaaaaap,qwwwwwwwwwwwwwwwwwww0w&,,,,,,,,,,,,",
",,,,,,,,,,,,,,,,,,,,,:eww9wwwwwwwwww0w>saaaaaaaaaaaaaaaaaaaad0ww9 e99aaapssaaapsaaaaaaaaaaaa>wwwwwwwwwwwwwwwww0wwwq#,,,,,,,,,,,,",
",,,,,,,,,,,,,,,,,,,,,:wwwwwwwwwwww0w0w1saaaaaaaaaaaaaaaaaaaag0ww9 e9waaasaaaaaaaaaaaaaaaaaaa>wwwwww9wwww0w0wwwwwwww$,,,,,,,,,,,,",
",,,,,,,,,,,,,,,,,,,,,>ewwwwwwwwwwwqw09>saaaaaaaaaaaaaaaaaaaag7ww9 w9waaaaaaaaaaaaaaaaaaaaaap>wwwwwwwwwwwwwqwwwqwwww#,,,,,,,,,,,,",
",,,,,,,,,,,,,,,,,,,,,,wqqqwwwwwwwwwwww<aaaaaaaaaaaaaaaaaaaaag7www e0waaaaaaaaaaaaaaaaaaaaaap>wwwwwwwwwwwwwwwwwwwwww@,,,,,,,,,,,,",
",,,,,,,,,,,,,,,,,,,,,,ewwqwqwwwwww0www<aaaaaaaaaaaaaaaaaaaaag7ww0 w7taaaaaaaaaaaaaaaaaaaaaaa>wwwwwwwwwwwwwwwwwwwww0&,,,,,,,,,,,,",
",,,,,,,,,,,,,,,,,,,,,,ewwwwwwwwwwwwwww<aaaaaaaaaaaasaaaaaaaag00ww w0eaaaaaaaaaaaaaaaaaaaaaaa>0w0wwwwwwwwwwwwwww9w0w&,,,,,,,,,,,,",
",,,,,,,,,,,,,,,,,,,,,1wwwwwwwqwwqwwwwq<aaaaaaaaaaaaaaaaaaaaag70ww w7taaaaaaaaaaaaaaaaaaaaaaa>wwwww9w9www9wwwwwwww00#,,,,,,,,,,,,",
",,,,,,,,,,,,,,,,,,,,,,wwwwwwwwwww0ww00<aaaaaaaaaaaaaaaaaaaaad7www 07tsaaaaaaaaaaaaaaaaaaaaaa>0wwwww9wwwwwwwwwwwwww0$,,,,,,,,,,,,",
",,,,,,,,,,,,,,,,,,,,,,wqwww9wwwwwwww00<aaaaaaaaaaaaaaaaaaaaad7www w7taaaaaaaaaaaaaaaaaaaaaaa<wwwwwwwwwwwwwwwwwwwqw9$,,,,,,,,,,,,",
",,,,,,,,,,,,,,,,,,,,,,q0wwwwwwwwwwww00>aaaaaaaaaaaaaaaaaaaaad4www w7tsaaaaasaaaaaaaaaaaaaaai>wwwwwwwwwwwwwwwwwwwwww&,,,,,,,,,,,,",
",,,,,,,,,,,,,,,,,,,,,190wwwwwwwwwqwww0<aaaaaaaaaaaaaaaaaaaaas7www 07yaaaaaaaaaaaaaaaaaaaaaaa>wwwwwwwwwwwwwww9wwwwww&,,,,,,,,,,,,",
",,,,,,,,,,,,,,,,,,,,,,7wwwwwwwwwwww9ww<aaaaaaaaaaaaaaaaaaaaad40ww q6yaaaaaaaaaaaaaaaaaaaaaaa>9wwwwwwwwwwwwwwwwwwwq9&,,,,,,,,,,,,",
",,,,,,,,,,,,,,,,,,,,,13qwwwwwwwwwwwwww>aaaaaaaaaaaaaaasaaaaaf4w0w w6yaaaaaaaaaaaaaaaaaaaaaaa>00wqwwwwww9wwwwwwqw002*,,,,,,,,,,,,",
",,,,,,,,,,,,,,,,,,,,,,10wwwwwwwwwwwwww<aaaaaaaaaaaasaaaaaaaas4wwwX96paaaaaaaaaaaaaaaaaaaaaap>wwwwwwwwwwwwwwwwwqqw$>>,,,,,,,,,,,,",
",,,,,,,,,,,,,,,,,,,,,,1qwww9wwwww0wwww<aaaaaaaaaaaaaaaaaaaaad4wwwX96yaaaaaaaaaasaaaaaaaaaaaa<0wwwwwwwwwwwwwwwww0$,,,,,,,,,,,,,,,",
",,,,,,,,,,,,,,,,,,,,,,,09www9wwwwwwww0<aaaaaaaaaaaaaaaaaaaaaf4w0wXq6paaaaaaaaaaaaaaaaaaaaaaa,wwwwwwwwwwwwwwwww9&1,,,,,,,,,,,,,,,",
",,,,,,,,,,,,,,,,,,,,,,>0wwwwwwww0wwww0<aaaaaaaaaaaaaaaaaaaaaa4wweX96paaaaaaaaaaaaaaaaaaaaaaa<0w0w9wwwwwwwwwwww&;>>,,,,,,,,,,,,,,",
",,,,,,,,,,,,,,,,,,,,,,&:ewwwwwwwwwwww0<aagaaaaaaasaaaaaaaaaaa400wo76paaaaaaaaassaaaaaaaaaaaa>wqqwwwwww9w9ww9w@,,,,,,,,,,,,,,,,,,",
",,,,,,,,,,,,,,,,,,,,,,,:&-ewwwwwwwwwww<<<<<<<<<<<<<<<<<<<<<<<300eo06<<<<<<<<<<<<<<<<<<<<<<<<1w0qwwwwwwwwwwwe&,1>,,,,,,,,,,,,,,,,",
",,,,,,,,,,,,,,,,,,,,,,,,,,:&100qqwwwq0wwww0wwwwwwwwwwwwwwwq00qqqwo90wwwwww000qww88q8qqqqqqqq9q9qwqq0www9qq2*,,,,,,,,,,,,,,,,,,,,",
",,,,,,,,,,,,,,,,,,,,,,,,,,,,-$0q9qwwq999999wwwwwwwwwweweeweeweeryowewww977432111>>>:;:--**%$$##$##$&$$$&&$*,,,,,,,,,,,,,,,,,,,,,",
",,,,,,,,,,,,,,,,,,,,,,,,,,,,,,=$**&&$&$$#$#$$##$*&&&&&&*****==**=@=--;;;;;:,,,,>,,,,,<,<1<<<,1<,1><>,,,,>,,,,,,,,,,,,,,,,,,,,,,,",
",,,,,,,,,,,,,,,,,,,,,,,,,,,,,,,,<,,1<<>,,,,,,,,,,>,,,,,,,,,,,,,,,,,,><>,><<>,,,,,,,,,,,,,,,,,,,,,>,,,,,,,,,,,,,,,,,,,,,,,,,,,,,,",
",,,,,,,,,,,,,,,,,,,,,,,,,,,,,,,,,,,,,,,,,,,,,,,,,,,,,,,,,,,,,,,,,,,,,,,,,,,,,,,,,,,,,,,,,,,,,,,,,,,,,,,,,,,,,,,,,,,,,,,,,,,,,,,,",
",,,,,,,,,,,,,,,,,,,,,,,,,,,,,,,,,,,,,,,,,,,,,,,,,,,,,,,,,,,,,,,,,,,,,,,,,,,,,,,,,,,,,,,,,,,,,,,,,,,,,,,,,,,,,,,,,,,,,,,,,,,,,,,,",
",,,,,,,,,,,,,,,,,,,,,,,,,,,,,,,,,,,,,,,,,,,,,,,,,,,,,,,,,,,,,,,,,,,,,,,,,,,,,,,,,,,,,,,,,,,,,,,,,,,,,,,,,,,,,,,,,,,,,,,,,,,,,,,,",
",,,,,,,,,,,,,,,,,,,,,,,,,,,,,,,,,,,,,,,,,,,,,,,,,,,,,,,,,,,,,,,,,,,,,,,,,,,,,,,,,,,,,,,,,,,,,,,,,,,,,,,,,,,,,,,,,,,,,,,,,,,,,,,,",
",,,,,,,,,,,,,,,,,,,,,,,,,,,,,,,,,,,,,,,,,,,,,,,,,,,,,,,,,,,,,,,,,,,,,,,,,,,,,,,,,,,,,,,,,,,,,,,,,,,,,,,,,,,,,,,,,,,,,,,,,,,,,,,,",
",,,,,,,,,,,,,,,,,,,,,,,,,,,,,,,,,,,,,,,,,,,,,,,,,,,,,,,,,,,,,,,,,,,,,,,,,,,,,,,,,,,,,,,,,,,,,,,,,,,,,,,,,,,,,,,,,,,,,,,,,,,,,,,,",
",,,,,,,,,,,,,,,,,,,,,,,,,,,,,,,,,,,,,,,,,,,,,,,,,,,,,,,,,,,,,,,,,,,,,,,,,,,,,,,,,,,,,,,,,,,,,,,,,,,,,,,,,,,,,,,,,,,,,,,,,,,,,,,,",
",,,,,,,,,,,>,,,,,,,,,,,,,,,,,,,,,,,,,,,,,,,,,,,,,,,,,,,,,,,,,,,,,,,,,,,,,,,,,,,,,,,,,,,,,,,,,,,,,,,,,,,,,,,,,,,,,,,,,,,,,,,,,,,,",
",,,,,,,,><>>,,,,,,,,,,,,,,,,,,,,,,,,,,,,,,,,,,,,,,,,,,,,,,,,,,,,,,,,,,,,,,,,,,,,,,,,,,,,,,,,,,,,,,,,,,,,,,,,,,,,,,,,,,,,,,,>,,,,",
",,,>,,,,><>1,,,,,,,,,,,,,,,,,,,,,>,,,,,,,,,,,,,,,,,,,,,,,,,,,,,,,,,,,,,,,,,,,,,,,,,,,,,,,,,,,,,,,,,,,,,,,,,,,,,,,,,,,,,,,,,>,,,,",
",,1>,,,,<<<<,,,,,,,,,,,,,,,,,,,,><,,,,,,,,,,>,<>,,<,,,,,,,,,,,,,,,,,,,,,,,,,,,,,,,,>,,,,,,,,,,,,,,,,,,,,,,,>,,,,,,,,,,,>,,>1,>,1",
"*****%**%%*%%%%%&$*$%$&$&$&&&&&&*%$%$&$%$$&$&$$&$$$$$$$&$$%$$%$$%$$$%#%#$#$#$#$#$$$$%#$#$$#$#$#$$$$$$$$&$$$$$$#$$$#$$$&&#&#&&&$$"
};
