/* XPM */
static char *result[] = {
/* columns rows colors chars-per-pixel */
"128 128 12 1 ",
"  c #34383B",
". c #363A3D",
"X c #373B3E",
"o c #363C3D",
"O c #383A3D",
"+ c #383B3F",
"@ c #383C3F",
"# c #55555A",
"$ c #5A595F",
"% c #5C5B60",
"& c #5F5E63",
"* c #616065",
/* pixels */
"@@@@@@@@@@@@@@@@@@@@@@@@@@@@@@@@@@@@@@@@@@@@@@@@@@@@@@@@@@@@@@@@@@@@@@@@@@@@@@@@@@@@@@@@@@@@@@@@@@@@@@@@@@@@@@@@@@@@@@@@@@@@@@@@",
"@@@@@@@@@@@@@@@@@@@@@@@@@@@@@@@@@@@@@@@@@@@@@@@@@@@@@@@@@@@@@@@@@@@@@@@@@@@@@@@@@@@@@@@@@@@@@@@@@@@@@@@@@@@@@@@@@@@@@@@@@@@@@@@@",
"@@@@@@@@@@@@@@@@@@@@@@@@@@@@@@@@@@@@@@@@@@@@@@@@@@@@@@@@@@@@@@@@@@@@@@@@@@@@@@@@@@@@@@@@@@@@@@@@@@@@@@@@@@@@@@@@@@@@@@@@@@@@@@@@",
"O@@@@@@@@@@@@@@@@@@@@@@@@@@@@@@@@@@@@@@@@@@@@@@@@@@@@@@@@@@@@@@@@@@@@@@@@@X@@@@@@@@@@@@@@@@@@@@@@@@@@@@@@@@@@@@@@@@@@@@@@+@@@@@@",
"%&&&&&&&&&&&&&&&&&&&&&&&&&&&&&&&&&&&&&&&&&&&&&&&&&&&&&&&&&&&&&&&&&&&&&&&&& @@@@@#&&&&&&&&&&&&&&&&&&&&&&&&&&&&&&&&&&&&&&&&*@@@@@.",
"$&&&&&&&&&&&&&&&&&&&&&&&&&&&&&&&&&&&&&&&&&&&&&&&&&&&&&&&&&&&&&&&&&&&&&&&&& @@@@@#&&&&&&&&&&&&&&&&&&&&&&&&&&&&&&&&&&&&&&&&*@@@@@.",
"$&&&&&&&&&&&&&&&&&&&&&&&&&&&&&&&&&&&&&&&&&&&&&&&&&&&&&&&&&&&&&&&&&&&&&&&&& @@@@@#&&&&&&&&&&&&&&&&&&&&&&&&&&&&&&&&&&&&&&&&*@@@@@.",
"$&&&&&&&&&&&&&&&&&&&&&&&&&&&&&&&&&&&&&&&&&&&&&&&&&&&&&&&&&&&&&&&&&&&&&&&&& @@@@@#&&&&&&&&&&&&&&&&&&&&&&&&&&&&&&&&&&&&&&&&*@@@@@.",
"$&&&&&&&&&&&&&&&&&&&&&&&&&&&&&&&&&&&&&&&&&&&&&&&&&&&&&&&&&&&&&&&&&&&&&&&&& @@@@@#&&&&&&&&&&&&&&&&&&&&&&&&&&&&&&&&&&&&&&&&*@@@@@.",
"$&&&&&&&&&&&&&&&&&&&&&&&&&&&&&&&&&&&&&&&&&&&&&&&&&&&&&&&&&&&&&&&&&&&&&&&&& @@@@@#&&&&&&&&&&&&&&&&&&&&&&&&&&&&&&&&&&&&&&&&*@@@@@.",
"$&&&&&&&&&&&&&&&&&&&&&&&&&&&&&&&&&&&&&&&&&&&&&&&&&&&&&&&&&&&&&&&&&&&&&&&&& @@@@@#&&&&&&&&&&&&&&&&&&&&&&&&&&&&&&&&&&&&&&&&*@@@@@.",
"$&&&&&&&&&&&&&&&&&&&&&&&&&&&&&&&&&&&&&&&&&&&&&&&&&&&&&&&&&&&&&&&&&&&&&&&&& @@@@@#&&&&&&&&&&&&&&&&&&&&&&&&&&&&&&&&&&&&&&&&*@@@@@.",
"$&&&&&&&&&&&&&&&&&&&&&&&&&&&&&&&&&&&&&&&&&&&&&&&&&&&&&&&&&&&&&&&&&&&&&&&&& @@@@@#&&&&&&&&&&&&&&&&&&&&&&&&&&&&&&&&&&&&&&&&*@@@@@.",
"$&&&&&&&&&&&&&&&&&&&&&&&&&&&&&&&&&&&&&&&&&&&&&&&&&&&&&&&&&&&&&&&&&&&&&&&&& @@@@@#&&&&&&&&&&&&&&&&&&&&&&&&&&&&&&&&&&&&&&&&*@@@@@.",
"$&&&&&&&&&&&&&&&&&&&&&&&&&&&&&&&&&&&&&&&&&&&&&&&&&&&&&&&&&&&&&&&&&&&&&&&&& @@@@@#&&&&&&&&&&&&&&&&&&&&&&&&&&&&&&&&&&&&&&&&*@@@@@.",
"$&&&&&&&&&&&&&&&&&&&&&&&&&&&&&&&&&&&&&&&&&&&&&&&&&&&&&&&&&&&&&&&&&&&&&&&&& @@@@@#&&&&&&&&&&&&&&&&&&&&&&&&&&&&&&&&&&&&&&&&*@@@@@.",
"$&&&&&&&&&&&&&&&&&&&&&&&&&&&&&&&&&&&&&&&&&&&&&&&&&&&&&&&&&&&&&&&&&&&&&&&&& @@@@@#&&&&&&&&&&&&&&&&&&&&&&&&&&&&&&&&&&&&&&&&*@@@@@.",
"$&&&&&&&&&&&&&&&&&&&&&&&&&&&&&&&&&&&&&&&&&&&&&&&&&&&&&&&&&&&&&&&&&&&&&&&&& @@@@@#&&&&&&&&&&&&&&&&&&&&&&&&&&&&&&&&&&&&&&&&*@@@@@o",
"$&&&&&&&&&&&&&&&&&&&&&&&&&&&&&&&&&&&&&&&&&&&&&&&&&&&&&&&&&&&&&&&&&&&&&&&&& @@@@@#&&&&&&&&&&&&&&&&&&&&&&&&&&&&&&&&&&&&&&&&*@@@@@@",
"$&&&&&&&&&&&&&&&&&&&&&&&&&&&&&&&&&&&&&&&&&&&&&&&&&&&&&&&&&&&&&&&&&&&&&&&&& @@@@@#&&&&&&&&&&&&&&&&&&&&&&&&&&&&&&&&&&&&&&&&*@@@@@@",
"$&&&&&&&&&&&&&&&&&&&&&&&&&&&&&&&&&&&&&&&&&&&&&&&&&&&&&&&&&&&&&&&&&&&&&&&&& @@@@@#&&&&&&&&&&&&&&&&&&&&&&&&&&&&&&&&&&&&&&&&*@@@@@@",
"$&&&&&&&&&&&&&&&&&&&&&&&&&&&&&&&&&&&&&&&&&&&&&&&&&&&&&&&&&&&&&&&&&&&&&&&&& @@@@@#&&&&&&&&&&&&&&&&&&&&&&&&&&&&&&&&&&&&&&&&*@@@@@@",
"$&&&&&&&&&&&&&&&&&&&&&&&&&&&&&&&&&&&&&&&&&&&&&&&&&&&&&&&&&&&&&&&&&&&&&&&&& @@@@@#&&&&&&&&&&&&&&&&&&&&&&&&&&&&&&&&&&&&&&&&*@@@@@.",
"$&&&&&&&&&&&&&&&&&&&&&&&&&&&&&&&&&&&&&&&&&&&&&&&&&&&&&&&&&&&&&&&&&&&&&&&&& @@@@@#&&&&&&&&&&&&&&&&&&&&&&&&&&&&&&&&&&&&&&&&*@@@@@.",
"$&&&&&&&&&&&&&&&&&&&&&&&&&&&&&&&&&&&&&&&&&&&&&&&&&&&&&&&&&&&&&&&&&&&&&&&&& @@@@@#&&&&&&&&&&&&&&&&&&&&&&&&&&&&&&&&&&&&&&&&*@@@@@.",
"$&&&&&&&&&&&&&&&&&&&&&&&&&&&&&&&&&&&&&&&&&&&&&&&&&&&&&&&&&&&&&&&&&&&&&&&&& @@@@@#&&&&&&&&&&&&&&&&&&&&&&&&&&&&&&&&&&&&&&&&*@@@@@.",
"$&&&&&&&&&&&&&&&&&&&&&&&&&&&&&&&&&&&&&&&&&&&&&&&&&&&&&&&&&&&&&&&&&&&&&&&&& @@@@@#&&&&&&&&&&&&&&&&&&&&&&&&&&&&&&&&&&&&&&&&*@@@@@.",
"$&&&&&&&&&&&&&&&&&&&&&&&&&&&&&&&&&&&&&&&&&&&&&&&&&&&&&&&&&&&&&&&&&&&&&&&&& @@@@@#&&&&&&&&&&&&&&&&&&&&&&&&&&&&&&&&&&&&&&&&*@@@@@.",
"$&&&&&&&&&&&&&&&&&&&&&&&&&&&&&&&&&&&&&&&&&&&&&&&&&&&&&&&&&&&&&&&&&&&&&&&&& @@@@@#&&&&&&&&&&&&&&&&&&&&&&&&&&&&&&&&&&&&&&&&*@@@@@.",
"$&&&&&&&&&&&&&&&&&&&&&&&&&&&&&&&&&&&&&&&&&&&&&&&&&&&&&&&&&&&&&&&&&&&&&&&&& @@@@@#&&&&&&&&&&&&&&&&&&&&&&&&&&&&&&&&&&&&&&&&*@@@@@.",
"$&&&&&&&&&&&&&&&&&&&&&&&&&&&&&&&&&&&&&&&&&&&&&&&&&&&&&&&&&&&&&&&&&&&&&&&&& @@@@@#&&&&&&&&&&&&&&&&&&&&&&&&&&&&&&&&&&&&&&&&*@@@@@.",
"$&&&&&&&&&&&&&&&&&&&&&&&&&&&&&&&&&&&&&&&&&&&&&&&&&&&&&&&&&&&&&&&&&&&&&&&&& @@@@@#&&&&&&&&&&&&&&&&&&&&&&&&&&&&&&&&&&&&&&&&*@@@@@.",
"$&&&&&&&&&&&&&&&&&&&&&&&&&&&&&&&&&&&&&&&&&&&&&&&&&&&&&&&&&&&&&&&&&&&&&&&&& @@@@@#&&&&&&&&&&&&&&&&&&&&&&&&&&&&&&&&&&&&&&&&*@@@@@.",
"$&&&&&&&&&&&&&&&&&&&&&&&&&&&&&&&&&&&&&&&&&&&&&&&&&&&&&&&&&&&&&&&&&&&&&&&&& @@@@@#&&&&&&&&&&&&&&&&&&&&&&&&&&&&&&&&&&&&&&&&*@@@@@.",
"$&&&&&&&&&&&&&&&&&&&&&&&&&&&&&&&&&&&&&&&&&&&&&&&&&&&&&&&&&&&&&&&&&&&&&&&&& @@@@@#&&&&&&&&&&&&&&&&&&&&&&&&&&&&&&&&&&&&&&&&*@@@@@.",
"$&&&&&&&&&&&&&&&&&&&&&&&&&&&&&&&&&&&&&&&&&&&&&&&&&&&&&&&&&&&&&&&&&&&&&&&&& @@@@@#&&&&&&&&&&&&&&&&&&&&&&&&&&&&&&&&&&&&&&&&*@@@@@.",
"$&&&&&&&&&&&&&&&&&&&&&&&&&&&&&&&&&&&&&&&&&&&&&&&&&&&&&&&&&&&&&&&&&&&&&&&&& @@@@@#&&&&&&&&&&&&&&&&&&&&&&&&&&&&&&&&&&&&&&&&*@@@@@.",
"$&&&&&&&&&&&&&&&&&&&&&&&&&&&&&&&&&&&&&&&&&&&&&&&&&&&&&&&&&&&&&&&&&&&&&&&&& @@@@@#&&&&&&&&&&&&&&&&&&&&&&&&&&&&&&&&&&&&&&&&*@@@@@.",
"$&&&&&&&&&&&&&&&&&&&&&&&&&&&&&&&&&&&&&&&&&&&&&&&&&&&&&&&&&&&&&&&&&&&&&&&&& @@@@@#&&&&&&&&&&&&&&&&&&&&&&&&&&&&&&&&&&&&&&&&*@@@@@.",
"$&&&&&&&&&&&&&&&&&&&&&&&&&&&&&&&&&&&&&&&&&&&&&&&&&&&&&&&&&&&&&&&&&&&&&&&&& @@@@@#&&&&&&&&&&&&&&&&&&&&&&&&&&&&&&&&&&&&&&&&*@@@@@.",
"$&&&&&&&&&&&&&&&&&&&&&&&&&&&&&&&&&&&&&&&&&&&&&&&&&&&&&&&&&&&&&&&&&&&&&&&&& @@@@@#&&&&&&&&&&&&&&&&&&&&&&&&&&&&&&&&&&&&&&&&*@@@@@.",
"$&&&&&&&&&&&&&&&&&&&&&&&&&&&&&&&&&&&&&&&&&&&&&&&&&&&&&&&&&&&&&&&&&&&&&&&&& @@@@@#&&&&&&&&&&&&&&&&&&&&&&&&&&&&&&&&&&&&&&&&*@@@@@.",
"$&&&&&&&&&&&&&&&&&&&&&&&&&&&&&&&&&&&&&&&&&&&&&&&&&&&&&&&&&&&&&&&&&&&&&&&&& @@@@@#&&&&&&&&&&&&&&&&&&&&&&&&&&&&&&&&&&&&&&&&*@@@@@.",
"$&&&&&&&&&&&&&&&&&&&&&&&&&&&&&&&&&&&&&&&&&&&&&&&&&&&&&&&&&&&&&&&&&&&&&&&&& @@@@@#&&&&&&&&&&&&&&&&&&&&&&&&&&&&&&&&&&&&&&&&*@@@@@.",
"$&&&&&&&&&&&&&&&&&&&&&&&&&&&&&&&&&&&&&&&&&&&&&&&&&&&&&&&&&&&&&&&&&&&&&&&&& @@@@@#&&&&&&&&&&&&&&&&&&&&&&&&&&&&&&&&&&&&&&&&*@@@@@.",
"$&&&&&&&&&&&&&&&&&&&&&&&&&&&&&&&&&&&&&&&&&&&&&&&&&&&&&&&&&&&&&&&&&&&&&&&&& @@@@@#&&&&&&&&&&&&&&&&&&&&&&&&&&&&&&&&&&&&&&&&*@@@@@.",
"$&&&&&&&&&&&&&&&&&&&&&&&&&&&&&&&&&&&&&&&&&&&&&&&&&&&&&&&&&&&&&&&&&&&&&&&&& @@@@@#&&&&&&&&&&&&&&&&&&&&&&&&&&&&&&&&&&&&&&&&*@@@@@.",
"$&&&&&&&&&&&&&&&&&&&&&&&&&&&&&&&&&&&&&&&&&&&&&&&&&&&&&&&&&&&&&&&&&&&&&&&&& @@@@@#&&&&&&&&&&&&&&&&&&&&&&&&&&&&&&&&&&&&&&&&*@@@@@.",
"$&&&&&&&&&&&&&&&&&&&&&&&&&&&&&&&&&&&&&&&&&&&&&&&&&&&&&&&&&&&&&&&&&&&&&&&&& @@@@@#&&&&&&&&&&&&&&&&&&&&&&&&&&&&&&&&&&&&&&&&*@@@@@.",
"$&&&&&&&&&&&&&&&&&&&&&&&&&&&&&&&&&&&&&&&&&&&&&&&&&&&&&&&&&&&&&&&&&&&&&&&&& @@@@@#&&&&&&&&&&&&&&&&&&&&&&&&&&&&&&&&&&&&&&&&*@@@@@.",
"$&&&&&&&&&&&&&&&&&&&&&&&&&&&&&&&&&&&&&&&&&&&&&&&&&&&&&&&&&&&&&&&&&&&&&&&&& @@@@@#&&&&&&&&&&&&&&&&&&&&&&&&&&&&&&&&&&&&&&&&*@@@@@.",
"$&&&&&&&&&&&&&&&&&&&&&&&&&&&&&&&&&&&&&&&&&&&&&&&&&&&&&&&&&&&&&&&&&&&&&&&&& @@@@@#&&&&&&&&&&&&&&&&&&&&&&&&&&&&&&&&&&&&&&&&*@@@@@.",
"$&&&&&&&&&&&&&&&&&&&&&&&&&&&&&&&&&&&&&&&&&&&&&&&&&&&&&&&&&&&&&&&&&&&&&&&&& @@@@@#&&&&&&&&&&&&&&&&&&&&&&&&&&&&&&&&&&&&&&&&*@@@@@.",
"$&&&&&&&&&&&&&&&&&&&&&&&&&&&&&&&&&&&&&&&&&&&&&&&&&&&&&&&&&&&&&&&&&&&&&&&&& @@@@@#&&&&&&&&&&&&&&&&&&&&&&&&&&&&&&&&&&&&&&&&*@@@@@.",
"$&&&&&&&&&&&&&&&&&&&&&&&&&&&&&&&&&&&&&&&&&&&&&&&&&&&&&&&&&&&&&&&&&&&&&&&&& @@@@@#&&&&&&&&&&&&&&&&&&&&&&&&&&&&&&&&&&&&&&&&*@@@@@.",
"$&&&&&&&&&&&&&&&&&&&&&&&&&&&&&&&&&&&&&&&&&&&&&&&&&&&&&&&&&&&&&&&&&&&&&&&&& @@@@@#&&&&&&&&&&&&&&&&&&&&&&&&&&&&&&&&&&&&&&&&*@@@@@.",
"$&&&&&&&&&&&&&&&&&&&&&&&&&&&&&&&&&&&&&&&&&&&&&&&&&&&&&&&&&&&&&&&&&&&&&&&&& @@@@@#&&&&&&&&&&&&&&&&&&&&&&&&&&&&&&&&&&&&&&&&*@@@@@.",
"$&&&&&&&&&&&&&&&&&&&&&&&&&&&&&&&&&&&&&&&&&&&&&&&&&&&&&&&&&&&&&&&&&&&&&&&&& @@@@@#&&&&&&&&&&&&&&&&&&&&&&&&&&&&&&&&&&&&&&&&*@@@@@.",
"$&&&&&&&&&&&&&&&&&&&&&&&&&&&&&&&&&&&&&&&&&&&&&&&&&&&&&&&&&&&&&&&&&&&&&&&&& @@@@@#&&&&&&&&&&&&&&&&&&&&&&&&&&&&&&&&&&&&&&&&*@@@@@.",
"$&&&&&&&&&&&&&&&&&&&&&&&&&&&&&&&&&&&&&&&&&&&&&&&&&&&&&&&&&&&&&&&&&&&&&&&&& @@@@@#&&&&&&&&&&&&&&&&&&&&&&&&&&&&&&&&&&&&&&&&*@@@@@.",
"$&&&&&&&&&&&&&&&&&&&&&&&&&&&&&&&&&&&&&&&&&&&&&&&&&&&&&&&&&&&&&&&&&&&&&&&&& @@@@@#&&&&&&&&&&&&&&&&&&&&&&&&&&&&&&&&&&&&&&&&*@@@@@.",
"$&&&&&&&&&&&&&&&&&&&&&&&&&&&&&&&&&&&&&&&&&&&&&&&&&&&&&&&&&&&&&&&&&&&&&&&&& @@@@@#&&&&&&&&&&&&&&&&&&&&&&&&&&&&&&&&&&&&&&&&*@@@@@.",
"$&&&&&&&&&&&&&&&&&&&&&&&&&&&&&&&&&&&&&&&&&&&&&&&&&&&&&&&&&&&&&&&&&&&&&&&&& @@@@@#&&&&&&&&&&&&&&&&&&&&&&&&&&&&&&&&&&&&&&&&*@@@@@.",
"$&&&&&&&&&&&&&&&&&&&&&&&&&&&&&&&&&&&&&&&&&&&&&&&&&&&&&&&&&&&&&&&&&&&&&&&&& @@@@@#&&&&&&&&&&&&&&&&&&&&&&&&&&&&&&&&&&&&&&&&*@@@@@.",
"$&&&&&&&&&&&&&&&&&&&&&&&&&&&&&&&&&&&&&&&&&&&&&&&&&&&&&&&&&&&&&&&&&&&&&&&&& @@@@@#&&&&&&&&&&&&&&&&&&&&&&&&&&&&&&&&&&&&&&&&*@@@@@.",
"$&&&&&&&&&&&&&&&&&&&&&&&&&&&&&&&&&&&&&&&&&&&&&&&&&&&&&&&&&&&&&&&&&&&&&&&&& @@@@@#&&&&&&&&&&&&&&&&&&&&&&&&&&&&&&&&&&&&&&&&*@@@@@.",
"$&&&&&&&&&&&&&&&&&&&&&&&&&&&&&&&&&&&&&&&&&&&&&&&&&&&&&&&&&&&&&&&&&&&&&&&&& @@@@@#&&&&&&&&&&&&&&&&&&&&&&&&&&&&&&&&&&&&&&&&*@@@@@.",
"$&&&&&&&&&&&&&&&&&&&&&&&&&&&&&&&&&&&&&&&&&&&&&&&&&&&&&&&&&&&&&&&&&&&&&&&&& @@@@@#&&&&&&&&&&&&&&&&&&&&&&&&&&&&&&&&&&&&&&&&*@@@@@.",
"$&&&&&&&&&&&&&&&&&&&&&&&&&&&&&&&&&&&&&&&&&&&&&&&&&&&&&&&&&&&&&&&&&&&&&&&&& @@@@@#&&&&&&&&&&&&&&&&&&&&&&&&&&&&&&&&&&&&&&&&*@@@@@.",
"$&&&&&&&&&&&&&&&&&&&&&&&&&&&&&&&&&&&&&&&&&&&&&&&&&&&&&&&&&&&&&&&&&&&&&&&&& @@@@@#&&&&&&&&&&&&&&&&&&&&&&&&&&&&&&&&&&&&&&&&*@@@@@.",
"$&&&&&&&&&&&&&&&&&&&&&&&&&&&&&&&&&&&&&&&&&&&&&&&&&&&&&&&&&&&&&&&&&&&&&&&&& @@@@@#&&&&&&&&&&&&&&&&&&&&&&&&&&&&&&&&&&&&&&&&*@@@@@.",
"$&&&&&&&&&&&&&&&&&&&&&&&&&&&&&&&&&&&&&&&&&&&&&&&&&&&&&&&&&&&&&&&&&&&&&&&&& @@@@@#&&&&&&&&&&&&&&&&&&&&&&&&&&&&&&&&&&&&&&&&*@@@@@.",
"$&&&&&&&&&&&&&&&&&&&&&&&&&&&&&&&&&&&&&&&&&&&&&&&&&&&&&&&&&&&&&&&&&&&&&&&&& @@@@@#&&&&&&&&&&&&&&&&&&&&&&&&&&&&&&&&&&&&&&&&*@@@@@.",
"$&&&&&&&&&&&&&&&&&&&&&&&&&&&&&&&&&&&&&&&&&&&&&&&&&&&&&&&&&&&&&&&&&&&&&&&&& @@@@@#&&&&&&&&&&&&&&&&&&&&&&&&&&&&&&&&&&&&&&&&*@@@@@.",
"$&&&&&&&&&&&&&&&&&&&&&&&&&&&&&&&&&&&&&&&&&&&&&&&&&&&&&&&&&&&&&&&&&&&&&&&&& @@@@@#&&&&&&&&&&&&&&&&&&&&&&&&&&&&&&&&&&&&&&&&*@@@@@.",
"$&&&&&&&&&&&&&&&&&&&&&&&&&&&&&&&&&&&&&&&&&&&&&&&&&&&&&&&&&&&&&&&&&&&&&&&&& @@@@@#&&&&&&&&&&&&&&&&&&&&&&&&&&&&&&&&&&&&&&&&*@@@@@.",
"$&&&&&&&&&&&&&&&&&&&&&&&&&&&&&&&&&&&&&&&&&&&&&&&&&&&&&&&&&&&&&&&&&&&&&&&&& @@@@@#&&&&&&&&&&&&&&&&&&&&&&&&&&&&&&&&&&&&&&&&*@@@@@.",
"$&&&&&&&&&&&&&&&&&&&&&&&&&&&&&&&&&&&&&&&&&&&&&&&&&&&&&&&&&&&&&&&&&&&&&&&&& @@@@@#&&&&&&&&&&&&&&&&&&&&&&&&&&&&&&&&&&&&&&&&*@@@@@.",
"$&&&&&&&&&&&&&&&&&&&&&&&&&&&&&&&&&&&&&&&&&&&&&&&&&&&&&&&&&&&&&&&&&&&&&&&&& @@@@@#&&&&&&&&&&&&&&&&&&&&&&&&&&&&&&&&&&&&&&&&*@@@@@.",
"$&&&&&&&&&&&&&&&&&&&&&&&&&&&&&&&&&&&&&&&&&&&&&&&&&&&&&&&&&&&&&&&&&&&&&&&&& @@@@@#&&&&&&&&&&&&&&&&&&&&&&&&&&&&&&&&&&&&&&&&*@@@@@.",
"$&&&&&&&&&&&&&&&&&&&&&&&&&&&&&&&&&&&&&&&&&&&&&&&&&&&&&&&&&&&&&&&&&&&&&&&&& @@@@@#&&&&&&&&&&&&&&&&&&&&&&&&&&&&&&&&&&&&&&&&*@@@@@.",
"$&&&&&&&&&&&&&&&&&&&&&&&&&&&&&&&&&&&&&&&&&&&&&&&&&&&&&&&&&&&&&&&&&&&&&&&&& @@@@@#&&&&&&&&&&&&&&&&&&&&&&&&&&&&&&&&&&&&&&&&*@@@@@.",
"$&&&&&&&&&&&&&&&&&&&&&&&&&&&&&&&&&&&&&&&&&&&&&&&&&&&&&&&&&&&&&&&&&&&&&&&&& @@@@@#&&&&&&&&&&&&&&&&&&&&&&&&&&&&&&&&&&&&&&&&*@@@@@.",
"$&&&&&&&&&&&&&&&&&&&&&&&&&&&&&&&&&&&&&&&&&&&&&&&&&&&&&&&&&&&&&&&&&&&&&&&&& @@@@@#&&&&&&&&&&&&&&&&&&&&&&&&&&&&&&&&&&&&&&&&*@@@@@.",
"$&&&&&&&&&&&&&&&&&&&&&&&&&&&&&&&&&&&&&&&&&&&&&&&&&&&&&&&&&&&&&&&&&&&&&&&&& @@@@@#&&&&&&&&&&&&&&&&&&&&&&&&&&&&&&&&&&&&&&&&*@@@@@.",
"$&&&&&&&&&&&&&&&&&&&&&&&&&&&&&&&&&&&&&&&&&&&&&&&&&&&&&&&&&&&&&&&&&&&&&&&&& @@@@@#&&&&&&&&&&&&&&&&&&&&&&&&&&&&&&&&&&&&&&&&*@@@@@.",
"$&&&&&&&&&&&&&&&&&&&&&&&&&&&&&&&&&&&&&&&&&&&&&&&&&&&&&&&&&&&&&&&&&&&&&&&&& @@@@@#&&&&&&&&&&&&&&&&&&&&&&&&&&&&&&&&&&&&&&&&*@@@@@.",
"$&&&&&&&&&&&&&&&&&&&&&&&&&&&&&&&&&&&&&&&&&&&&&&&&&&&&&&&&&&&&&&&&&&&&&&&&& @@@@@#&&&&&&&&&&&&&&&&&&&&&&&&&&&&&&&&&&&&&&&&*@@@@@.",
"$&&&&&&&&&&&&&&&&&&&&&&&&&&&&&&&&&&&&&&&&&&&&&&&&&&&&&&&&&&&&&&&&&&&&&&&&& @@@@@#&&&&&&&&&&&&&&&&&&&&&&&&&&&&&&&&&&&&&&&&*@@@@@.",
"$&&&&&&&&&&&&&&&&&&&&&&&&&&&&&&&&&&&&&&&&&&&&&&&&&&&&&&&&&&&&&&&&&&&&&&&&& @@@@@#&&&&&&&&&&&&&&&&&&&&&&&&&&&&&&&&&&&&&&&&*@@@@@.",
"$&&&&&&&&&&&&&&&&&&&&&&&&&&&&&&&&&&&&&&&&&&&&&&&&&&&&&&&&&&&&&&&&&&&&&&&&& @@@@@#&&&&&&&&&&&&&&&&&&&&&&&&&&&&&&&&&&&&&&&&*@@@@@.",
"$&&&&&&&&&&&&&&&&&&&&&&&&&&&&&&&&&&&&&&&&&&&&&&&&&&&&&&&&&&&&&&&&&&&&&&&&& @@@@@#&&&&&&&&&&&&&&&&&&&&&&&&&&&&&&&&&&&&&&&&*@@@@@.",
"$&&&&&&&&&&&&&&&&&&&&&&&&&&&&&&&&&&&&&&&&&&&&&&&&&&&&&&&&&&&&&&&&&&&&&&&&& @@@@@#&&&&&&&&&&&&&&&&&&&&&&&&&&&&&&&&&&&&&&&&*@@@@@.",
"$&&&&&&&&&&&&&&&&&&&&&&&&&&&&&&&&&&&&&&&&&&&&&&&&&&&&&&&&&&&&&&&&&&&&&&&&& @@@@@#&&&&&&&&&&&&&&&&&&&&&&&&&&&&&&&&&&&&&&&&*@@@@@.",
"$&&&&&&&&&&&&&&&&&&&&&&&&&&&&&&&&&&&&&&&&&&&&&&&&&&&&&&&&&&&&&&&&&&&&&&&&& @@@@@#&&&&&&&&&&&&&&&&&&&&&&&&&&&&&&&&&&&&&&&&*@@@@@.",
"$&&&&&&&&&&&&&&&&&&&&&&&&&&&&&&&&&&&&&&&&&&&&&&&&&&&&&&&&&&&&&&&&&&&&&&&&& @@@@@#&&&&&&&&&&&&&&&&&&&&&&&&&&&&&&&&&&&&&&&&*@@@@@.",
"$&&&&&&&&&&&&&&&&&&&&&&&&&&&&&&&&&&&&&&&&&&&&&&&&&&&&&&&&&&&&&&&&&&&&&&&&& @@@@@#&&&&&&&&&&&&&&&&&&&&&&&&&&&&&&&&&&&&&&&&*@@@@@.",
"$&&&&&&&&&&&&&&&&&&&&&&&&&&&&&&&&&&&&&&&&&&&&&&&&&&&&&&&&&&&&&&&&&&&&&&&&& @@@@@#&&&&&&&&&&&&&&&&&&&&&&&&&&&&&&&&&&&&&&&&*@@@@@.",
"$&&&&&&&&&&&&&&&&&&&&&&&&&&&&&&&&&&&&&&&&&&&&&&&&&&&&&&&&&&&&&&&&&&&&&&&&& @@@@@#&&&&&&&&&&&&&&&&&&&&&&&&&&&&&&&&&&&&&&&&*@@@@@.",
"$&&&&&&&&&&&&&&&&&&&&&&&&&&&&&&&&&&&&&&&&&&&&&&&&&&&&&&&&&&&&&&&&&&&&&&&&& @@@@@#&&&&&&&&&&&&&&&&&&&&&&&&&&&&&&&&&&&&&&&&*@@@@@.",
"$&&&&&&&&&&&&&&&&&&&&&&&&&&&&&&&&&&&&&&&&&&&&&&&&&&&&&&&&&&&&&&&&&&&&&&&&& @@@@@#&&&&&&&&&&&&&&&&&&&&&&&&&&&&&&&&&&&&&&&&*@@@@@.",
"$&&&&&&&&&&&&&&&&&&&&&&&&&&&&&&&&&&&&&&&&&&&&&&&&&&&&&&&&&&&&&&&&&&&&&&&&& @@@@@#&&&&&&&&&&&&&&&&&&&&&&&&&&&&&&&&&&&&&&&&*@@@@@.",
"$&&&&&&&&&&&&&&&&&&&&&&&&&&&&&&&&&&&&&&&&&&&&&&&&&&&&&&&&&&&&&&&&&&&&&&&&& @@@@@#&&&&&&&&&&&&&&&&&&&&&&&&&&&&&&&&&&&&&&&&*@@@@@.",
"$&&&&&&&&&&&&&&&&&&&&&&&&&&&&&&&&&&&&&&&&&&&&&&&&&&&&&&&&&&&&&&&&&&&&&&&&& @@@@@#&&&&&&&&&&&&&&&&&&&&&&&&&&&&&&&&&&&&&&&&*@@@@@.",
"$&&&&&&&&&&&&&&&&&&&&&&&&&&&&&&&&&&&&&&&&&&&&&&&&&&&&&&&&&&&&&&&&&&&&&&&&& @@@@@#&&&&&&&&&&&&&&&&&&&&&&&&&&&&&&&&&&&&&&&&*@@@@@.",
"$&&&&&&&&&&&&&&&&&&&&&&&&&&&&&&&&&&&&&&&&&&&&&&&&&&&&&&&&&&&&&&&&&&&&&&&&& @@@@@#&&&&&&&&&&&&&&&&&&&&&&&&&&&&&&&&&&&&&&&&*@@@@@.",
"$&&&&&&&&&&&&&&&&&&&&&&&&&&&&&&&&&&&&&&&&&&&&&&&&&&&&&&&&&&&&&&&&&&&&&&&&& @@@@@#&&&&&&&&&&&&&&&&&&&&&&&&&&&&&&&&&&&&&&&&*@@@@@.",
"$&&&&&&&&&&&&&&&&&&&&&&&&&&&&&&&&&&&&&&&&&&&&&&&&&&&&&&&&&&&&&&&&&&&&&&&&& @@@@@#&&&&&&&&&&&&&&&&&&&&&&&&&&&&&&&&&&&&&&&&*@@@@@.",
"$&&&&&&&&&&&&&&&&&&&&&&&&&&&&&&&&&&&&&&&&&&&&&&&&&&&&&&&&&&&&&&&&&&&&&&&&& @@@@@#&&&&&&&&&&&&&&&&&&&&&&&&&&&&&&&&&&&&&&&&*@@@@@.",
"$&&&&&&&&&&&&&&&&&&&&&&&&&&&&&&&&&&&&&&&&&&&&&&&&&&&&&&&&&&&&&&&&&&&&&&&&& @@@@@#&&&&&&&&&&&&&&&&&&&&&&&&&&&&&&&&&&&&&&&&*@@@@@.",
"$&&&&&&&&&&&&&&&&&&&&&&&&&&&&&&&&&&&&&&&&&&&&&&&&&&&&&&&&&&&&&&&&&&&&&&&&& @@@@@#&&&&&&&&&&&&&&&&&&&&&&&&&&&&&&&&&&&&&&&&*@@@@@.",
"$&&&&&&&&&&&&&&&&&&&&&&&&&&&&&&&&&&&&&&&&&&&&&&&&&&&&&&&&&&&&&&&&&&&&&&&&& @@@@@#&&&&&&&&&&&&&&&&&&&&&&&&&&&&&&&&&&&&&&&&*@@@@@.",
"$&&&&&&&&&&&&&&&&&&&&&&&&&&&&&&&&&&&&&&&&&&&&&&&&&&&&&&&&&&&&&&&&&&&&&&&&& @@@@@#&&&&&&&&&&&&&&&&&&&&&&&&&&&&&&&&&&&&&&&&*@@@@@.",
"$&&&&&&&&&&&&&&&&&&&&&&&&&&&&&&&&&&&&&&&&&&&&&&&&&&&&&&&&&&&&&&&&&&&&&&&&& @@@@@#&&&&&&&&&&&&&&&&&&&&&&&&&&&&&&&&&&&&&&&&*@@@@@.",
"$&&&&&&&&&&&&&&&&&&&&&&&&&&&&&&&&&&&&&&&&&&&&&&&&&&&&&&&&&&&&&&&&&&&&&&&&& @@@@@#&&&&&&&&&&&&&&&&&&&&&&&&&&&&&&&&&&&&&&&&*@@@@@.",
"$&&&&&&&&&&&&&&&&&&&&&&&&&&&&&&&&&&&&&&&&&&&&&&&&&&&&&&&&&&&&&&&&&&&&&&&&& @@@@@#&&&&&&&&&&&&&&&&&&&&&&&&&&&&&&&&&&&&&&&&*@@@@@.",
"$&&&&&&&&&&&&&&&&&&&&&&&&&&&&&&&&&&&&&&&&&&&&&&&&&&&&&&&&&&&&&&&&&&&&&&&&& @@@@@#&&&&&&&&&&&&&&&&&&&&&&&&&&&&&&&&&&&&&&&&*@@@@@.",
"$&&&&&&&&&&&&&&&&&&&&&&&&&&&&&&&&&&&&&&&&&&&&&&&&&&&&&&&&&&&&&&&&&&&&&&&&& @@@@@#&&&&&&&&&&&&&&&&&&&&&&&&&&&&&&&&&&&&&&&&*@@@@@.",
"$&&&&&&&&&&&&&&&&&&&&&&&&&&&&&&&&&&&&&&&&&&&&&&&&&&&&&&&&&&&&&&&&&&&&&&&&& @@@@@#&&&&&&&&&&&&&&&&&&&&&&&&&&&&&&&&&&&&&&&&*@@@@@.",
"$&&&&&&&&&&&&&&&&&&&&&&&&&&&&&&&&&&&&&&&&&&&&&&&&&&&&&&&&&&&&&&&&&&&&&&&&& @@@@@#&&&&&&&&&&&&&&&&&&&&&&&&&&&&&&&&&&&&&&&&*@@@@@.",
"$&&&&&&&&&&&&&&&&&&&&&&&&&&&&&&&&&&&&&&&&&&&&&&&&&&&&&&&&&&&&&&&&&&&&&&&&& @@@@@#&&&&&&&&&&&&&&&&&&&&&&&&&&&&&&&&&&&&&&&&*@@@@@.",
"$&&&&&&&&&&&&&&&&&&&&&&&&&&&&&&&&&&&&&&&&&&&&&&&&&&&&&&&&&&&&&&&&&&&&&&&&& @@@@@#&&&&&&&&&&&&&&&&&&&&&&&&&&&&&&&&&&&&&&&&*@@@@@.",
"$&&&&&&&&&&&&&&&&&&&&&&&&&&&&&&&&&&&&&&&&&&&&&&&&&&&&&&&&&&&&&&&&&&&&&&&&& @@@@@#&&&&&&&&&&&&&&&&&&&&&&&&&&&&&&&&&&&&&&&&*@@@@@.",
"$&&&&&&&&&&&&&&&&&&&&&&&&&&&&&&&&&&&&&&&&&&&&&&&&&&&&&&&&&&&&&&&&&&&&&&&&& @@@@@#&&&&&&&&&&&&&&&&&&&&&&&&&&&&&&&&&&&&&&&&*@@@@@.",
"$&&&&&&&&&&&&&&&&&&&&&&&&&&&&&&&&&&&&&&&&&&&&&&&&&&&&&&&&&&&&&&&&&&&&&&&&& @@@@@#&&&&&&&&&&&&&&&&&&&&&&&&&&&&&&&&&&&&&&&&*@@@@@.",
"$&&&&&&&&&&&&&&&&&&&&&&&&&&&&&&&&&&&&&&&&&&&&&&&&&&&&&&&&&&&&&&&&&&&&&&&&& @@@@@#&&&&&&&&&&&&&&&&&&&&&&&&&&&&&&&&&&&&&&&&*@@@@@.",
"$&&&&&&&&&&&&&&&&&&&&&&&&&&&&&&&&&&&&&&&&&&&&&&&&&&&&&&&&&&&&&&&&&&&&&&&&& @@@@@#&&&&&&&&&&&&&&&&&&&&&&&&&&&&&&&&&&&&&&&&*@@@@@.",
"$&&&&&&&&&&&&&&&&&&&&&&&&&&&&&&&&&&&&&&&&&&&&&&&&&&&&&&&&&&&&&&&&&&&&&&&&& @@@@@#&&&&&&&&&&&&&&&&&&&&&&&&&&&&&&&&&&&&&&&&*@@@@@."
};
